<svg fill="none" height="255" viewBox="0 0 963 255" width="963" xmlns="http://www.w3.org/2000/svg" xmlns:xlink="http://www.w3.org/1999/xlink"><linearGradient id="a"><stop offset="0" stop-color="#ffcc19"/><stop offset=".585938" stop-color="#2ecdf7"/><stop offset="1" stop-color="#9e7bff"/></linearGradient><linearGradient id="b" gradientUnits="userSpaceOnUse" x1="-6.60498" x2="286.799" xlink:href="#a" y1="7.45307" y2="36.3535"/><linearGradient id="c" gradientUnits="userSpaceOnUse" x1="124.203" x2="303.17" xlink:href="#a" y1="7.45307" y2="18.1404"/><linearGradient id="d" gradientUnits="userSpaceOnUse" x1="-6.59917" x2="286.804" xlink:href="#a" y1="7.45302" y2="36.3535"/><path clip-rule="evenodd" d="m767.084 122.663h66.229v55.902h-19.771l-1.15-16.442c-9.89 10.688-25.538 17.922-47.78 17.922-38.552 0-62.111-19.073-62.111-53.6 0-34.5283 23.559-53.6012 66.561-53.6012 41.841 0 62.606 16.2778 64.251 42.0912h-27.344c-1.484-7.892-8.74-19.7303-37.068-19.7303-34.934 0-39.712 19.2373-39.712 31.7333 0 12.661 4.945 32.39 39.712 32.39 26.027 0 36.401-11.345 37.068-19.237h-38.885zm-241.197 56.068h26.693v-104.2422h-36.247l-43.659 73.4952-43.659-73.4952h-36.245v104.2422h26.854v-71.523l43.494 71.523h19.276l43.493-71.523zm77.274-22.197h62.439l11.368 22.197h29.655l-54.042-104.2422h-36.245l-53.871 104.2422h29.489zm31.3-62.1506 21.254 42.2566h-42.674zm244.821 22.6896v-21.2095h83.525v-21.3747h-110.38v104.5712h110.38v-21.375h-83.525v-21.21h83.525v-19.402z" fill="#000" fill-rule="evenodd"/><path clip-rule="evenodd" d="m130.937 2.25h75.508v93.6288l48.888-93.6288h75.528v248.675h-77.559v-93.693l-48.907 93.665-75.524.03.013-93.652-48.8993 93.65h-78.89177zm3.155 133.805-.014 109.666 67.161-.027 57.268-109.678v109.705h67.148v-238.2669h-67.168l-57.248 109.6399.001-109.6399h-67.148l-124.40985 238.2669h67.14805z" fill="#000" fill-rule="evenodd"/><path d="m201.24 7.45312h-67.148l-124.40999 238.26688h67.14819l57.2618-109.666v109.666h67.147v-238.26547z" fill="url(#b)"/><path d="m258.487 7.45312h67.148l-124.41 238.26688h-67.148z" fill="url(#c)" opacity=".4"/><path d="m258.507 7.45312h67.148v238.26688h-67.148z" fill="url(#d)"/></svg>