<svg enable-background="new 5241.943 -1223.931 2200 2200" height="2200" viewBox="5241.943 -1223.931 2200 2200" width="2200" xmlns="http://www.w3.org/2000/svg"><path d="m5652.228-311.022s-128.691 190.143-32.952 369.151c65.903 122.902 116.223 164.315 137.151 215.524 60.115 150.065-164.76 179.455-134.034-65.459-141.605 252.93 16.921 248.922 83.271 460.438 48.092 152.737 218.195 312.599 688.875 280.538 386.519-25.828 533.912-132.254 589.129-238.234 63.232-120.676-4.898-154.964 77.036-291.67 70.357-116.668 90.396-229.328-19.593-323.731 73.474 145.167-162.533 272.077-198.603 39.632-15.586-97.075 27.163-207.509 111.77-254.265 154.519-86.833 82.38-232.445 82.38-232.445s19.593 84.606-61.451 96.629-131.362-154.518-40.967-253.374c164.314-179.9-145.613-411.9-47.647-602.933 0 0-94.403 64.567-112.215 169.658-18.257 105.09-213.298 79.263-243.132-44.976-30.281-124.683 58.334-214.633 58.334-214.633s-170.995 81.935-212.853 233.781c-41.858 152.291-248.922 154.518-284.99 85.497-36.069-68.576 37.404-164.761 37.404-164.761s-172.33 88.614-122.901 232.445c60.115 192.814-256.492 264.953-265.397 33.843-139.823 163.87 49.428 322.396 45.42 467.117-4.453 153.629-162.089 147.395-134.035 2.228zm284.099-597.144c-61.896 38.295-71.248 98.855-59.67 138.487 21.374 72.584 80.153 51.209 80.153-6.234.001-38.741-58.779-82.825-20.483-132.253zm457.32-211.517c-87.278 35.624-55.217 164.314-111.77 166.986-21.374 1.336-44.084-25.382-21.374-73.474 37.406-78.817 133.144-93.512 133.144-93.512zm562.412 1115.471c-61.896 38.295-71.248 98.855-59.67 138.042 21.374 72.583 80.153 51.654 80.153-5.789 0-38.741-58.779-82.825-20.483-132.253z" fill="#ffcd54"/><path d="m5901.148-561.279 19.148-9.352c25.827-12.468 53.436-22.71 81.044-31.171 24.937-8.015 50.318-14.694 75.7-20.483 37.851-29.835 73.475-58.334 108.652-91.731 13.359-12.913 24.937-27.608 38.296-40.967 12.023-11.133 24.491-20.93 38.741-29.39 43.639-25.828 99.301-37.405 149.175-43.64 59.225-7.57 127.8-11.133 187.024.445 25.827 4.898 75.255 18.257 79.708 49.873 4.008 27.608-16.03 37.851-40.076 38.741-17.813.891-20.93 10.688-32.507 24.491-8.906 10.242-17.366 20.483-25.827 30.726-24.937 30.28-46.757 40.077-37.851 77.481l3.117 12.914c26.272 19.593 52.1 39.632 78.372 59.225 23.602 17.366 47.201 34.733 71.248 52.1 30.726 22.265 118.449 87.278 134.925 106.427 17.812 20.483 47.647 56.107 34.733 85.052-10.688 22.265-39.632 26.718-61.451 28.499-16.031.891-32.507.891-48.537 0-21.375-.891-42.749-2.672-63.678-4.453-91.286-8.016-181.236-2.672-272.522 0-59.67 1.781-119.34 2.227-179.009-3.117-65.014-5.344-127.801-17.813-189.697-38.296-69.467-23.601-137.597-60.115-189.252-113.105-27.162-28.054-59.225-71.247-65.903-110.879-2.672-16.922-4.453-38.296 10.687-49.873 14.695-11.578 34.734-5.344 49.874.445 15.586 6.233 30.727 12.913 45.866 20.038z"/><path d="m6199.498 810.236c-26.272 8.016-27.608 3.117-57.443-5.343-12.023-3.117-22.71-10.242-29.39-20.93-17.813-29.39-.445-73.919 14.249-101.527l5.789-12.023 12.914 2.227c33.843 5.789 68.575 8.906 102.863 10.242l19.148.445-1.781 19.593c-.891 6.234-2.227 19.594-.891 26.272 3.562 16.031 4.452 34.288-1.781 50.319-5.344 13.358-16.031 24.046-30.726 26.718-13.803 2.672-15.585-1.335-32.951 4.007zm297.014 0c-22.711 16.031-30.726 12.023-59.225 12.023-12.023.445-23.155-3.117-32.507-10.688-31.171-25.827-23.601-86.832-16.477-122.011l2.672-12.914 12.914-1.781c35.179-4.008 70.356-9.351 105.09-16.476l18.703-3.563 2.672 18.257c1.781 8.906 4.007 24.937 7.569 32.062 8.461 16.922 15.141 36.515 12.469 55.662-2.227 15.586-10.688 30.28-25.827 36.515-14.695 5.79-12.468 1.782-28.053 12.914z"/><path d="m6146.953 787.526c-6.68-13.804-10.688-43.193 4.008-52.99-4.898 31.171 1.78 71.248 43.193 58.779-10.242-19.147-16.476-42.303 0-59.67 0 0-.891 27.608 8.906 41.858 18.702 26.718 56.553 13.804 44.529-42.749-1.781-7.124-.891-20.483 0-32.062-39.186-1.336-74.364-4.898-105.09-10.241-17.365 34.289-35.178 85.944 4.454 97.075zm290.334 16.922c-11.133-13.359-23.601-43.64-11.133-59.225 3.563 35.179 22.265 77.036 59.67 50.318-15.14-17.366-28.499-40.522-16.921-64.568 0 0 7.124 30.28 20.929 42.304 26.718 23.601 61.006-2.672 32.062-60.115-3.563-7.57-7.125-23.601-8.906-36.96-30.28 6.234-65.459 12.023-106.871 16.477-8.462 42.748-14.696 112.215 31.17 111.769z" fill="#ffd7e0"/><path d="m6146.953 787.526c-2.227-4.007-4.008-10.241-4.898-16.476-2.227.445-5.789-.891-10.688-4.453-3.563-3.117-6.233-7.125-8.46-12.023.446 15.586 6.679 28.055 24.046 32.952zm6.234-12.467c5.344 15.585 17.367 25.382 40.968 18.257-3.563-6.68-6.68-14.249-8.461-21.374-3.562 4.898-8.905 8.461-17.366 7.57-7.126-.446-12.024-2.672-15.141-4.453zm45.42-8.907c.891 3.117 2.672 6.68 4.453 9.352 18.702 26.718 56.553 13.804 44.529-42.749-1.781-7.124-.891-20.483 0-32.062-7.124 0-13.804-.445-20.929-.891-1.336 29.39 12.914 65.459-3.563 70.357-11.131 3.564-19.591.001-24.49-4.007zm206.173 13.36c3.563 2.227 6.68 4.008 9.797 4.452 5.343 1.336 9.351 1.781 11.577 1.336 3.117 7.57 7.125 14.695 11.133 19.148-17.367 0-27.608-9.797-32.507-24.936zm34.288 8.46c6.233 2.672 15.585 4.898 25.827 2.672 6.234-.891 10.241-3.117 12.468-5.789 2.672 4.008 5.789 7.57 8.461 10.688-21.374 15.139-36.96 8.015-46.756-7.571zm52.991-12.468c9.351-.891 20.038-5.789 14.694-24.047-7.57-26.717-17.812-46.311-16.921-70.802 8.016-1.336 15.585-3.117 23.155-4.453 1.781 13.359 5.344 29.39 8.906 36.96 28.054 55.662-3.562 81.935-29.834 62.342z" fill="#ffa3b9"/><path d="m6046.761-518.977s-52.99 20.039-134.034-16.03-107.763-53.881-98.856 0c7.57 46.311 73.029 152.292 242.242 208.845 226.211 75.7 419.024 20.929 636.33 40.521 156.299 14.25 191.032 1.781 123.348-77.481-68.131-78.817-214.634-126.91-319.278-142.94-104.2-16.03-132.699-11.133-132.699-11.133s91.286-9.796 183.463 8.906c91.731 18.257 136.261 41.858 136.261 41.858s-99.301-72.584-131.362-97.521-72.139-52.545-72.139-52.545l43.64 14.694s-9.797-42.748-6.234-73.028c3.117-30.726-27.163-65.459-27.163-65.459s15.585 9.352 29.835 23.601c14.694 14.695 18.257 36.069 18.257 36.069s10.242-14.25 11.133-47.201c1.336-32.952-10.242-47.202-10.242-47.202s6.68 4.008 19.147 26.718c12.469 22.266 6.68 52.546 6.68 52.546s42.749-52.101 52.99-59.225c10.688-7.125 44.976 4.452 41.858-20.039-3.563-24.491-86.833-54.326-245.804-33.843-158.972 20.484-174.557 69.912-215.524 109.099-40.968 38.74-81.489 70.356-81.489 70.356s46.756-8.016 90.841-8.016c43.639 0 60.115 3.117 60.115 3.117-97.966 8.016-251.594 38.296-339.317 80.6-.003.001 32.058 29.836 118.001 34.733z" fill="#eb0032"/><path d="m5813.87-535.007c7.57 46.311 73.029 152.292 242.242 208.845 226.211 75.7 419.024 20.929 636.33 40.521 73.028 6.68 119.34 7.57 141.159-1.781 7.57-13.804 4.008-31.615-16.03-54.771-104.2-120.676-309.928-152.291-556.177-152.291-246.695 0-312.153-8.906-405.666-53.882-30.28-14.249-48.092-24.046-41.858 13.359zm780.607 37.405c60.115 15.585 89.06 31.171 89.06 31.171s-99.301-72.584-131.362-97.521c-11.578-8.906-24.046-18.257-35.179-26.272 4.453 4.453 9.352 9.797 15.141 16.921 22.263 25.827 49.426 59.67 62.34 75.701zm-92.623-111.769 21.82 7.569s-9.797-42.748-6.234-73.028c1.336-12.914-3.117-26.272-8.906-37.851 1.781 11.133 3.117 28.054-3.117 41.413-6.68 16.031-15.14 41.858-3.563 61.897zm8.907-115.777c3.117 2.671 6.234 5.788 9.352 8.46 14.694 14.695 18.257 36.069 18.257 36.069s10.242-14.25 11.133-47.201c.445-3.563.445-6.68 0-9.352-2.672 3.563-6.234 7.125-10.688 8.906-8.906 4.008-20.929 3.563-28.054 3.118zm47.646-23.157c12.469 22.711 6.68 52.546 6.68 52.546s42.749-52.101 52.99-59.225c9.352-6.234 36.515 1.781 41.413-12.023-4.898.891-12.468.891-24.046-1.336-33.397-5.789-43.194 10.688-54.326 19.147-8.461 5.79-18.258 3.118-22.711.891z" fill="#bc0028"/><path d="m5813.87-535.007c7.57 46.311 73.029 152.292 242.242 208.845 33.843 11.132 66.795 19.593 98.855 25.827 96.185-42.749 370.488-175.893 235.563-174.557-129.136 1.336-307.7-19.147-374.05-27.608-57.889-6.68-106.871-20.038-160.752-45.866-30.28-14.249-48.092-24.046-41.858 13.359z" fill="#ffa3b9"/><path d="m6651.029-787.49c-25.382-20.93-105.09-38.296-236.897-21.375-158.972 20.484-174.557 69.912-215.524 109.099-40.968 38.74-81.489 70.356-81.489 70.356s39.631-6.68 80.153-8.016c-4.453-4.452-5.344-13.358 6.234-30.279 24.491-34.733 49.428-63.232 86.388-93.513 33.397-27.163 260.053-63.232 361.135-26.272zm-487.6 166.986c-83.271 14.694-174.557 37.851-234.672 66.795 0 0 8.461 8.015 28.499 16.476 14.25-9.352 51.21-30.28 120.23-55.217 36.515-12.914 65.014-22.265 85.943-28.054z" fill="#ffa3b9"/><path d="m6307.705-481.126c316.161-8.016 492.499 133.144 507.194 158.972 14.249 26.272-26.273 26.718-108.207 20.038-81.936-6.234-284.991 3.563-415.018 3.563s-260.054-35.624-347.332-95.294c-87.278-60.115-115.332-138.487-111.77-150.065 2.672-6.679 31.17 5.789 53.436 16.922 113.106 56.552 300.576 48.981 421.697 45.864z"/><path d="m5873.095-491.367c20.929 32.506 49.428 60.56 81.489 82.38 93.513 64.122 225.321 92.621 337.091 92.621 55.662 0 111.324-1.78 166.986-3.116 47.201-.891 94.403-2.227 141.604-2.672 35.624-.445 72.583-.445 107.762 2.227 45.421 3.562 120.23 21.819 54.327-24.938-29.391-21.374-62.787-38.74-96.185-53.436-48.983-21.374-100.192-36.959-152.292-47.646-67.686-13.805-136.706-18.702-205.728-16.922-128.69 3.117-313.489 10.242-430.157-48.092-31.615-15.585-20.038-3.562-4.897 19.594z" fill="#640015"/><path d="m6011.582-477.118-.891-13.359c99.747 15.586 214.188 11.578 297.014 9.352 114.441-2.672 210.626 13.805 287.662 37.405-8.015 22.71-20.483 54.326-30.726 67.24 5.789-2.227 11.133-4.008 15.586-6.68-1.781 15.585-6.68 40.076-14.25 72.583-6.234 26.718-16.921 51.21-36.068 80.153-52.101 77.482-134.48 114.441-225.321 123.348-75.255 8.016-159.861.445-217.75-53.436-30.28-28.054-47.202-61.896-56.998-101.527-3.563-15.141-8.461-31.616-3.117-46.757 4.898-12.468 14.694-20.038 25.827-25.827-26.273-47.647-38.296-97.075-40.968-142.495z"/><path d="m6515.214-445.502c-17.366-3.563-35.179-6.68-52.99-8.906 14.249 35.624 17.812 55.662 17.812 55.662s23.154-9.351 35.178-46.756zm-449.75 10.242c1.781 6.679 4.452 12.913 6.679 18.257.891-4.453 2.227-9.352 4.008-14.695-.001 0-4.454-.891-10.687-3.562z" fill="#c7738a"/><path d="m6086.838-463.76c-20.038 8.461-40.522 7.125-40.522 7.125 30.726 20.039 89.505 17.367 118.449-4.008-8.906 12.914-12.913 32.062-6.68 46.757 9.797-25.382 42.304-44.976 69.021-39.187-61.896 14.25-54.326 59.67-61.006 65.459-4.008 3.563-12.469-8.016-14.249-11.133-8.016-12.913-8.906-21.819-8.016-40.521-16.031 6.233-33.843 8.015-51.209 7.569-8.461 25.827-16.031 66.795-12.023 93.513 18.702-3.563 60.561-6.234 77.481 0 0 0-48.982 3.117-83.716 15.586-36.96 12.913-33.397 25.382-25.827 56.107 8.906 36.514 43.194 162.088 254.265 140.269 131.809-13.359 232-89.505 251.148-222.648-20.484 15.14-39.187 25.382-63.232 28.944 0 0 50.764-40.968 76.591-113.106-12.468-3.562-24.937-6.679-37.404-9.351-.445 2.227-1.336 4.008-1.781 6.234-12.914 36.068-59.67 77.036-61.896 53.881-.891-10.688-7.57-40.522-19.594-74.365-45.865-5.789-92.176-7.569-138.487-6.234-65.014 1.781-143.832 4.008-221.313-.891zm-39.187-3.561c-5.344-.445-10.688-1.336-15.585-1.781v3.563c4.008.444 13.804.444 15.585-1.782zm-15.139 4.007c1.336 15.586 7.124 60.115 30.726 108.653 0 0-.891-15.141 4.897-44.53-6.679-13.358-11.132-28.054-14.694-41.857-.891-.891-1.781-1.336-2.672-1.781-10.688-6.681-16.476-16.032-18.257-20.485z" fill="#ffd7e0"/><path d="m6121.126-267.828c15.585-7.125 43.193-17.367 64.122-12.914 17.367 4.008 28.499 16.922 32.952 30.726 16.031 49.873-70.802 103.755-83.271 38.741-2.672-12.469-.891-23.601-14.249-38.296-12.023-13.804-18.702-9.352.446-18.257z"/><path d="m6156.749-191.683c.891.445 1.781.891 2.672 1.336 7.57 2.227 16.477-.891 22.711-4.008 8.905-4.898 16.921-12.468 22.265-20.929 4.898-8.016 7.569-17.366 6.233-26.272-6.679 2.672-14.249 14.249-17.366 20.483-.891-9.797 4.453-16.921 8.906-21.374-5.789.891-12.914 3.117-20.929 8.461-18.703 10.687-23.601 34.733-24.492 42.303z" fill="#ff547d"/><path d="m6327.743-129.341c119.34-20.038 208.399-94.849 226.212-219.531-20.484 15.14-39.187 25.382-63.232 28.944 0 0 50.764-40.968 76.591-113.106-12.468-3.562-24.937-6.679-37.404-9.351-.445 2.227-1.336 4.008-1.781 6.234-12.914 36.068-59.67 77.036-61.896 53.881-.891-10.688-7.57-40.522-19.594-74.365-16.921-2.227-33.842-3.563-51.209-4.898 29.39 96.185 48.537 239.125-56.107 322.841-4.455 3.117-8.017 6.234-11.58 9.351z" fill="#ffa3b9"/><path d="m6046.315-456.635c30.726 20.039 89.505 17.367 118.449-4.008-8.906 12.914-12.913 32.062-6.68 46.757 8.461-21.374 32.952-38.741 56.107-40.077s-10.241-2.227-24.937 1.781c-14.694 4.008-26.718 17.367-26.718 17.367s-.891 0 3.563-9.352c2.227-5.344 7.125-12.469 10.242-16.922-12.023 0-24.491 0-36.96-.445-7.57 2.672-17.366 5.789-30.726 8.461-37.403 7.571-62.34-3.562-62.34-3.562zm17.813 83.271c-5.789-13.804-17.367-43.193-22.266-76.591-5.344-5.344-8.015-10.688-9.351-13.359 1.336 15.586 7.124 60.115 30.726 108.653 0 0 0-6.235.891-18.703zm-24.047-92.176c0-.891 0-1.781 0-2.672-2.672-.445-5.343-.445-8.015-.891v3.563c1.782 0 5.343.445 8.015 0zm65.904 33.842c-4.453 0-8.906.445-13.358 0-8.461 25.827-16.031 66.795-12.023 93.513 13.805-2.672 39.632-4.453 59.67-3.117 3.117-21.374-4.898-32.507-7.57-36.959-10.241-16.031-35.179-21.375-33.843-28.944.445-6.235 5.343-19.595 7.124-24.493zm44.531 94.403c-15.586 1.336-49.874 5.344-76.146 14.695-36.96 12.913-33.397 25.382-25.827 56.107 8.016 32.507 35.624 134.479 188.361 142.495-16.031-1.336-61.006-7.125-90.841-33.843-38.296-34.733-61.006-83.271-60.115-103.309.891-20.484 17.366-32.952 17.366-32.952s-33.397 8.015-30.28-11.578c3.562-19.146 77.036-31.615 77.482-31.615z" fill="#fff"/><path d="m6047.651-284.305c10.242 11.578 27.163 18.703 30.726 17.367s12.023-18.703 24.937-27.163c11.133-7.57 13.805-25.382-7.125-21.82-11.132 2.227-31.615 5.789-42.303 4.898-9.352-.445-15.141 16.922-6.235 26.718z"/><path d="m5890.017 559.534c8.015 74.811 29.39 148.284 66.794 218.642l20.484 38.295-42.304-10.687c-53.436-13.805-99.301-41.858-127.801-89.95-47.201-81.044-30.279-191.924-4.898-276.976 16.922-56.553 40.968-113.551 69.021-166.096-7.57 1.781-15.14 2.227-22.71-1.336-11.132-5.789-15.14-16.921-18.702-28.054-6.234-20.929-9.352-44.084-11.578-65.904-3.117-35.178-3.117-69.466-3.117-104.645 0-7.57 0-15.141 0-22.71v-37.404c2.672 1.781 54.326 19.147 54.326-16.476 0-15.141 0-29.835-.445-44.53l-.891-29.39 26.718 10.688-3.116-14.25 52.99-.445c-4.898-11.577-9.352-23.601-13.805-35.179-17.366-44.975-31.616-91.73-40.521-138.933-1.336-7.124-2.672-14.694-4.008-21.819l-4.898-33.843 31.616 13.359c28.499 12.022 78.817 14.249 109.543 8.46l13.804-2.671c-.89 31.171 22.711 101.082 70.803 136.706.891 0 12.469-2.672 12.914-3.117 17.366-3.563 34.732-7.57 52.1-11.578 52.1-12.468 105.98-18.702 159.416-18.702 20.484-.445 42.749 0 63.232 2.227 0-1.781-.445-3.563-.445-5.344-4.008-35.624-8.906-71.247-13.804-106.871 63.677-2.672 125.573-2.672 189.251 2.227 29.835 2.227 57.443 5.789 86.388 10.241-3.117 16.922-5.344 30.726-11.132 46.757-7.57 22.71-17.813 44.975-29.391 65.903-13.358 23.602-29.389 46.312-45.865 67.686-4.453 5.789-8.906 11.133-13.359 16.477 12.469-1.336 27.164-5.789 38.296-12.023l38.296-20.929c-11.578 25.827-16.477 52.1-18.258 75.255-.891 14.25 0 30.726.891 44.976.445 14.249 1.336 28.499 2.227 42.748 28.055-9.796 53.881-13.804 80.6-26.718l.445 29.835c.445 12.469 0 24.937-.445 37.405-1.336 31.616-4.008 63.678-8.016 95.738-2.672 24.938-5.789 51.655-10.688 77.037 12.023 5.344 24.047 11.577 35.179 17.366 27.608 15.141 54.326 32.507 78.817 51.654 68.576 53.882 123.793 125.574 137.598 213.743 12.913 83.716-19.148 155.409-83.271 208.845-21.374 17.812-45.42 33.397-70.356 45.42-10.688 5.344-22.71 10.688-34.288 14.695l-32.062 10.687 7.125-32.951c4.898-22.266 3.563-53.437 0-75.701-2.227-12.914-4.898-25.382-8.461-38.296-5.788-19.147-13.804-37.85-23.155-55.662 0-.445-.445-.891-.445-1.336l-1.336.891c-14.25 14.695-46.311 28.499-65.014 35.624-30.279 11.578-62.787 19.593-94.402 26.718-50.319 10.688-101.974 17.367-153.183 22.265-94.849 9.352-194.149 6.234-286.771-17.366-24.937-6.234-50.318-14.249-73.92-24.491-8.905-3.563-18.702-8.016-27.163-12.914l-8.46-5.344-.891-9.796c-3.117-36.96-4.898-74.365-6.234-111.77-27.163 7.569-51.654 20.929-73.475 38.74z"/><path d="m5939.89 787.081c-84.606-158.525-93.067-339.762-36.96-531.685-86.388 148.729-204.837 469.79 36.96 531.685z" fill="#eb0032"/><path d="m5888.235 311.949c4.008-18.703 8.905-37.405 14.694-56.553-64.122 110.434-145.612 315.716-85.052 439.508-7.57-41.857-11.133-87.277-6.234-134.479 12.469-126.019 52.545-209.29 76.592-248.476z" fill="#ffa3b9"/><path d="m5905.602-280.742c32.507 13.805 86.833 16.477 120.676 9.797 7.57 33.397 20.038 56.998 40.077 84.161 0 0-33.397 20.483-48.538 35.624-11.132 11.132-8.905 23.601-6.234 32.952 5.344 17.812 7.57 24.491 15.586 39.186-3.563 16.031-8.906 49.874-7.125 82.825 3.117 55.217-8.906 89.06-22.71 142.496-19.147 63.677-25.827 154.072-27.163 219.086-.891 52.1-.445 128.246-.445 130.917-34.288 8.016-62.342 24.046-85.942 43.64-3.117-49.873-2.672-139.823 23.155-260.054 30.28-141.159 37.851-208.399 8.461-341.988l58.779-.445c-.001-.001-52.547-109.99-68.577-218.197z" fill="#89001d"/><path d="m5905.602-280.742c32.507 13.805 86.833 16.477 120.676 10.242-4.008.445-45.421 9.352-67.24 9.352-23.155 0-33.397 0-33.397 0s8.016 55.662 20.039 108.207c6.679 27.608 12.468 48.982 16.921 63.232-16.922-39.187-45.867-115.777-56.999-191.033zm-11.579 630.986c3.563-22.265 7.57-45.865 12.914-70.356 30.28-141.159 37.851-208.399 8.461-341.988l58.779-.445-48.538 8.015c20.484 85.942 20.484 186.58 0 272.522-9.35 40.076-21.819 84.606-31.616 132.252z" fill="#ffa3b9"/><path d="m6077.486-172.535s-13.804 6.68-28.944 17.813c-7.125 5.344-12.023 9.797-15.585 12.913-19.148 16.477 27.163 87.278 39.186 101.528 32.062 36.515 59.225 44.975 59.225 44.975 30.726-20.483 95.294-46.756 126.465-45.865-35.624 11.578-78.817 28.944-123.348 62.342-34.733-13.359-78.372-49.873-96.185-83.271-4.897 26.718-6.233 48.982-3.116 75.7 2.671 24.491 1.335 62.787-14.695 116.223-32.062 105.98-34.733 295.678-32.507 366.925 1.781 70.803 6.68 129.582 6.68 129.582s129.137 76.146 376.276 52.545c246.694-24.046 303.247-85.497 303.247-85.497-107.762-235.117-290.333-315.716-327.293-689.766h57.443s-1.336-33.843-3.117-51.654c-1.781-17.813-2.227-19.148-2.227-19.148s-104.199-12.913-222.203 15.586c-118.004 28.054-135.371 22.71-124.238 12.022 11.133-10.687 34.288-22.71 34.288-22.71z" fill="#ffa3b9"/><path d="m6131.367 4.693c30.726-20.483 95.294-46.756 126.465-45.865-19.147 6.234-40.968 14.25-63.678 25.382 21.374-3.117 44.53-2.227 64.123 9.352 45.42 27.163 47.646 349.559 183.907 676.406 186.58-27.608 232-76.591 232-76.591-107.762-235.117-290.333-315.716-327.293-689.766h57.443s-1.336-33.843-3.117-51.654c-1.781-17.813-2.227-19.148-2.227-19.148s-24.491-2.672-63.232-2.672c7.57 6.68 12.023 16.922 3.563 31.171-19.147 29.835-109.543 40.522-152.737 77.482-43.193 36.514-55.217 65.903-55.217 65.903z" fill="#f58eaa"/><path d="m6639.452 616.087c25.827-12.913 34.732-22.71 34.732-22.71-54.326-118.004-127.354-197.267-191.032-293.896 39.632 87.724 84.161 179.455 121.566 245.359 14.695 26.272 25.828 49.873 34.734 71.247z" fill="#c7738a"/><path d="m6035.184 13.6c2.671 24.491 1.335 62.787-14.695 116.223-32.062 105.98-34.733 295.678-32.507 366.925 1.781 70.803 6.68 129.582 6.68 129.582s7.125 4.008 21.374 10.241c-25.827-141.159-12.022-380.729 10.242-477.358 19.592-88.17 13.358-131.363 8.906-145.613z" fill="#ffd7e0"/><path d="m6077.486-172.535s-13.804 6.68-28.944 17.813c-7.125 5.344-12.023 9.797-15.585 12.913-18.703 16.031 24.046 83.271 38.295 100.192-24.046-36.515-35.178-80.599-24.046-77.481 16.031 4.007 49.428-.445 127.355-24.937 37.404-11.578 83.716-19.594 121.566-24.938-35.179 2.227-76.146 7.125-119.34 17.367-41.413 9.796-70.357 15.585-89.95 18.257s-.445 0-1.336.445c-15.586 2.227-25.382 2.227-30.726 1.336-8.906-.445-15.586-2.672-14.25-8.016 2.672-9.351 24.938-22.71 39.632-30.28z" fill="#ffd7e0"/><path d="m6402.554-280.742s16.03 114.887 17.366 157.19c1.781 42.748 0 48.092 0 48.092l-53.881-2.672c31.171 394.089 328.185 533.021 371.378 782.388 8.016 45.866 0 82.825 0 82.825s203.056-67.685 175.002-248.03c-28.054-179.9-240.461-267.624-240.461-267.624s-6.233 52.99-31.17 41.858c-25.383-11.133-103.755-68.131-132.699-101.083s-22.265-53.881-22.265-53.881 10.688 31.616 50.318 64.568c39.187 32.507 90.841 70.802 104.646 73.474 13.358 2.227 21.819-44.084 31.17-122.012 8.016-68.575 8.906-122.456 8.906-134.479-4.453 1.336-9.352 2.672-13.358 4.008 0 0-10.242 131.362-18.702 191.923-8.016 60.561-30.727-30.726-39.632-93.957-9.352-63.678-15.141-164.761-13.359-190.588 2.227-25.827 8.016-36.068 8.016-36.068s-20.929 11.577-44.976 14.249c-23.601 2.672-44.529-5.344-44.529-5.344s-18.257.891-31.171 11.133c-12.913 10.241-16.476 16.03-16.476 16.03s6.679-23.601 28.944-33.397 36.069-7.569 36.069-7.569 38.74-43.194 67.239-93.958c28.499-50.318 35.179-86.833 35.179-86.833s-96.184-15.587-231.554-10.243z" fill="#eb0032"/><path d="m6913.31 544.84c-.445-1.781-.445-3.563-.891-5.789-28.054-179.9-240.461-267.624-240.461-267.624s-.891 7.57-3.562 16.477c27.609 13.803 203.056 105.98 244.914 256.936zm-256.937-273.859c5.344-20.929 10.242-54.326 15.585-96.63 8.016-68.575 8.906-122.456 8.906-134.479-2.227.891-4.898 1.336-7.125 2.227.446 34.288.891 149.174-17.366 228.882z" fill="#ffa3b9"/><path d="m6402.554-280.742s16.03 114.887 17.366 157.19c1.781 42.748 0 48.092 0 48.092l-41.412 6.68s1.781 133.589 82.825 289.889c41.412 81.044 101.973 159.861 152.736 236.453-101.082-138.042-228.438-285.436-248.03-535.693l53.881 2.672s7.57-24.046 6.68-67.239c-.445-42.749-9.797-127.801-9.797-127.801s44.976-3.117 92.177-3.117c46.757 0 125.129 3.117 125.129 3.117s-96.185-15.587-231.555-10.243zm196.376 211.071c2.227-10.688 4.898-15.14 4.898-15.14s-20.929 11.577-44.976 14.249c-23.601 2.672-44.529-5.344-44.529-5.344s-9.352.445-19.147 4.453c5.788-1.336 12.468-1.336 19.147 1.781 17.813 8.907 52.545 12.024 84.607.001z" fill="#ffa3b9"/><path d="m5888.235-49.188s4.898 2.227 13.358 4.008c14.695 52.1 20.038 99.302 19.148 146.948-3.563 65.904-23.602 118.895-37.405 147.394-4.008 1.336-7.57 2.672-10.688 3.563-16.03 4.453-18.702 3.563-24.046-14.695-16.03-53.436-14.249-138.042-14.249-165.205 0-1.336 0-10.242 0-18.257 4.453 2.226 7.125 4.007 10.241 6.679 0 57.889 2.227 140.715 14.694 170.104 11.135-33.398 33.4-110.435 28.947-280.539z" fill="#eb0032"/><path d="m5888.235-49.188s4.898 2.227 13.358 4.008c1.336 4.453 2.672 8.906 3.563 13.805-5.344-.891-11.133-2.672-16.476-4.453.001-4.453-.445-8.906-.445-13.36zm-36.514 296.569c-.891-2.227-2.227-5.344-3.117-9.352-16.03-53.436-14.249-138.042-14.249-165.205 0-1.336 0-10.242 0-18.257 1.781.891 3.563 1.781 4.898 2.671-1.336 28.946-4.899 135.817 12.468 190.143z" fill="#ffa3b9"/><path d="m6112.665-389.395c-5.789-.891-12.023 0-17.813 2.227l-.444 2.672c-.445 4.008-.445 8.016 0 12.022.89 9.797 6.233 25.382 16.476 29.39 1.781 0 3.563.445 5.789 0 2.672 0 5.344-.891 7.57-1.336-12.469-3.117-18.258-18.257-16.922-29.835.446-5.788 2.227-10.686 5.344-15.14z" fill="#fff"/><path d="m6118.899-385.387c1.781.445 2.672 4.453 1.781 8.016-.891 4.007-3.563 6.233-5.789 5.788-1.781-.891-2.672-4.452-1.781-8.015.891-4.007 3.563-6.234 5.789-5.789z" fill="#fff"/><path d="m6609.172 74.605s21.819-10.242 44.975-24.937c13.805-8.906 40.968-10.242 49.874-20.929-8.461-1.336-16.031-3.563-22.266-6.234-20.038-7.125-32.951-27.163-26.272-48.093 13.805-43.639-32.952 0-33.843-71.247-.445-2.672 0-5.789 0-8.906-28.499 36.961-13.359 172.331-12.468 180.346z"/><path d="m6485.824 158.321s10.688 31.616 50.318 64.568c39.187 32.507 90.841 70.802 104.646 73.474 4.898.891 9.351-5.344 13.358-18.257 6.68-20.038 12.023-56.107 17.812-103.755 8.016-68.575 8.906-122.456 8.906-134.479-4.453 1.336-9.352 2.672-13.358 4.008 0 0-10.242 131.362-18.702 191.923-8.016 60.561-30.727-30.726-39.632-93.957-9.352-63.678-15.141-164.761-13.359-190.588.445-4.898.891-9.352 1.781-12.913s-12.022 45.42-5.344 135.37c2.227 28.499-61.45 24.937-96.184 17.812-40.522-8.906-20.039 40.522-10.242 66.794zm-565.527-93.512c.445 12.469.891 24.491.445 36.96-3.563 65.904-23.602 118.895-37.405 147.394-4.008 1.336-7.57 2.672-10.688 3.563-12.914 3.563-16.921 3.563-21.374-5.789 2.227 1.336 4.898 2.227 8.015.891 14.25-4.898 32.508-103.754 35.624-136.261 3.117-32.507 3.563-48.093 3.563-48.093s11.578 3.116 21.82 1.335zm552.169-126.019c4.452-7.125 11.577-16.031 23.155-20.93 22.265-9.796 36.069-7.569 36.069-7.569s37.404-41.858 65.903-91.286c-85.942 23.155-125.127 119.785-125.127 119.785z" fill="#bc0028"/><path d="m5855.283 69.707c.891 23.601 3.116 85.052 4.007 103.309 1.781 23.156 9.352-61.896 11.133-92.176-6.68-4.453-11.133-8.016-15.14-11.133z" fill="#640015"/><path d="m6619.858 69.262c1.781 36.515 7.125 112.215 17.367 136.706 8.906 21.82 13.358-82.38 15.585-155.408-12.913 8.014-24.936 14.694-32.952 18.702z" fill="#640015"/><path d="m6284.104-409.433c.445.445.891.891 1.336 1.336 0 .445 0 .445.445.891 4.453 7.124 7.57 16.476 7.57 26.718 0 22.265-13.359 40.076-29.39 40.076-16.477 0-29.39-17.812-29.39-40.076 0-1.781 0-3.563 0-5.789-2.672 1.781-5.344 3.563-7.57 5.344h-.445c-29.835 20.038-24.046-20.039-24.046-20.484.445-2.672 2.672-4.453 5.344-4.008 2.671.445 4.452 2.672 4.007 5.344 0 0-2.671 19.148 9.352 11.133h.445c21.374-14.25 61.451-40.968 93.958-40.968 2.672 0 4.453 2.227 4.453 4.898s-1.781 4.453-4.453 4.453c-10.688 0-22.71 3.563-34.288 8.461.891.89 1.782 1.335 2.672 2.671z"/><path d="m6250.262-384.496c3.563-.891 7.125 3.117 8.016 8.461.891 5.788-1.336 10.687-4.898 11.577s-7.125-3.117-8.016-8.461c-.891-5.788 1.335-11.132 4.898-11.577z" fill="#fff"/><path d="m6264.066-413.44c2.227-.445 4.452-.891 6.679-1.336 5.789-.445 10.688 1.336 14.695 6.68-22.265 4.007-38.296 9.351-48.982 13.804 0-.001 13.804-14.25 27.608-19.148z"/><path d="m6094.853-383.605c-3.116 7.125-4.007 16.476-2.671 25.827.891 8.016 3.116 15.14 6.679 20.483 6.68-.445 14.25 0 22.266.445 3.563 0 6.679 0 10.241.445 3.563-7.57 5.344-18.702 4.008-29.835 0-.891 0-1.336 0-2.227 25.382 12.469 10.688-24.491 10.688-24.491-.891-2.227-3.563-3.117-5.789-2.227-1.781.891-3.117 3.117-2.227 5.344 0 0 7.125 17.812-2.227 12.469-10.242-5.789-21.374-10.242-31.616-12.914-10.687-2.672-20.038-3.117-27.163-.891-2.227.445-3.117 2.672-2.672 4.898.891 2.227 3.117 3.563 5.344 3.117 3.561-1.334 8.905-1.334 15.139-.443z"/><path d="m6106.431-371.583c3.117.445 5.344 4.898 5.344 9.797 0 5.344-2.227 8.906-5.344 8.461s-5.789-4.898-5.344-9.797c0-4.899 2.226-8.906 5.344-8.461z" fill="#fff"/><path d="m6094.408-384.051c17.812-.445 30.28 2.672 38.295 5.789-12.468-10.688-38.295-6.234-38.295-6.234z"/><path d="m5879.774 83.957s-19.594-8.906-40.967-22.711c-12.914-8.015-37.852-9.351-45.866-19.147 7.569-1.336 14.694-3.563 20.483-5.789 18.258-6.679 30.28-25.382 24.047-44.529-12.914-40.077 30.279 0 31.17-65.459 0-2.672 0-5.344 0-8.016 26.273 33.842 12.469 158.526 11.133 165.651z"/><path d="m5829.456-115.537c-.891-.891-2.227-1.78-3.117-2.671-23.156-18.258-55.662-13.805-78.373 2.226-17.812 12.023-40.076 36.96-33.842 60.561 3.117 12.023 8.016 15.586 6.234 28.944-3.117 20.484 4.008 48.093 19.147 63.232 16.921 16.922 56.553 11.578 77.481 4.008 18.258-7.125 30.28-25.382 24.047-44.975-12.469-40.077 30.279.445 31.17-65.014.445-15.585-3.563-32.952-16.921-41.858-7.125-4.453-15.585-6.233-23.601-4.453z"/><path d="m5755.091-57.203s1.336-12.913 21.375-20.483c20.038-7.124 38.74-2.227 38.74-2.227s12.914-13.804 0-24.491c-12.914-10.242-35.623-12.023-57.443 3.117-21.374 14.695-28.944 32.507-26.718 41.413 2.672 8.46 9.352 16.921 6.68 36.068-2.672 18.703 5.788 39.187 14.249 47.647 8.461 8.905 37.405 8.46 58.779 0 20.93-8.016 17.813-33.843-4.453-33.843-22.265 0-35.623 4.453-35.623 4.453s0-11.578 18.257-14.25 44.53-3.117 41.858-25.827-35.179-36.068-75.701-11.577zm79.709-40.967s.891 8.906-2.672 14.694c-3.117 5.344-4.453 7.125-4.453 7.125s7.125 6.68 11.578 15.586c4.452 8.46 3.562 19.593 3.562 19.593 13.359 2.227 21.373-61.896-8.015-56.998z" fill="#ffd7e0"/><path d="m5755.091-57.203s1.336-12.913 21.375-20.483c20.038-7.124 38.74-2.227 38.74-2.227s4.008-4.453 5.344-10.241c-7.57-4.008-24.046-8.906-43.193.891-27.61 14.248-22.266 32.06-22.266 32.06zm-14.695 60.115c2.671 8.906 7.124 16.477 11.577 20.93 8.461 8.905 37.405 8.46 58.779 0 20.93-8.016 17.813-33.843-4.453-33.843-22.265 0-35.623 4.453-35.623 4.453s0-11.578 18.257-14.25 44.53-3.117 41.858-25.827c-.445-2.227-.891-4.453-1.781-6.68-7.125-2.672-20.93-5.789-41.858 0-23.6 6.68-48.091 24.492-46.756 55.217zm113.997-67.239c-1.781 1.336-4.453 1.781-8.016.891-5.788-2.227-11.132-5.789-15.14-8.906 2.672 2.672 5.789 6.68 8.016 11.578 4.452 8.46 3.562 19.593 3.562 19.593 5.789.89 10.242-10.243 11.578-23.156z" fill="#ffa3b9"/><path d="m5869.978-47.852 1.781.891c1.781 6.234 2.672 14.25 2.672 18.703 1.336 13.358 0 28.498-.445 41.412-.445 16.031-1.781 32.062-2.672 48.092-16.921-4.897-23.601-18.257-50.764-22.265 16.031-8.015 26.272-24.937 20.484-43.193-11.133-34.288 19.592-9.351 28.944-43.64z" fill="#ffd7e0"/><path d="m5873.985 13.6c-.445 16.031-1.781 32.062-2.672 47.646-16.921-4.897-23.601-18.257-50.764-22.265 15.141-7.57 24.937-23.155 21.374-39.632 11.134 7.571 23.156 12.024 32.062 14.251z" fill="#ffa3b9"/><path d="m6608.281 551.965 9.796-95.294 37.851 44.529z" fill="#ffa3b9"/><path d="m6591.805 415.258 2.672 66.349 13.804 70.358 9.796-95.294z" fill="#ff144d"/><path d="m6618.077 456.671 59.225-89.06-28.053-17.813-24.492 4.898c-1.781 21.376-6.68 101.975-6.68 101.975z" fill="#ff144d"/><path d="m6618.077 456.671-26.272-41.413 4.008-40.076 16.031-18.258 12.913-2.227z" fill="#ff547d"/><path d="m6677.302 367.611-59.225 89.06 37.851 44.529z" fill="#ff547d"/><path d="m6655.928 501.2 39.632-111.324-18.258-22.265z" fill="#ffa3b9"/><path d="m6643.015 486.061 32.061-105.091-3.117-16.921-22.709-14.25-31.172 5.789-4.898 7.57-8.46 73.029 8.016 72.138zm26.272-142.496-4.008-28.499-18.257-4.008-16.922 26.272c11.578 0 23.601 0 27.163.891 2.673.891 6.68 2.673 12.024 5.344z" fill-opacity=".2"/><path d="m6824.25-446.393-30.726 75.255-49.427-8.46 8.906-66.349 64.568-53.436z" fill="#eb0032"/><path d="m6789.962-618.277 27.609 118.895-40.968 62.787s-27.163-53.882-26.718-57.443c.446-3.118 40.077-124.239 40.077-124.239z" fill="#ffa3b9"/><path d="m6704.466-463.314 45.42-30.725 26.718 57.443-26.718 57.889-16.032-2.672z" fill="#ff547d"/><path d="m6789.962-618.277-59.225 46.756-26.271 108.207 45.42-30.725z" fill="#ff144d"/><path d="m6826.031-763.89-36.069 145.613 76.146-45.867z" fill="#ffa3b9"/><g fill="#ff547d"><path d="m6730.737-571.521 95.294-192.369-36.069 145.613z"/><path d="m6817.571-499.383-27.609-118.894 76.146-45.867z"/><path d="m6817.571-499.383-27.164 127.8 8.461 1.336 65.014-91.286z"/></g><path d="m6866.108-664.144-2.226 202.611-46.311-37.85z" fill="#ffa3b9"/><path d="m6839.836-648.558-6.234 162.534-51.655 101.083-27.608-3.118-20.039-95.294 26.273-111.324 48.983-102.863z" fill-opacity=".2"/><path d="m6866.108-664.144-37.85-59.223-15.585 91.285-22.711 13.805 36.069-145.613z" fill="#ffd7e0"/><path d="m6592.695 444.202s-4.452-33.397-8.905-59.67 48.537-101.973 74.364-214.188c26.272-112.661 63.678-325.067 69.467-411.455 6.233-85.942-2.227-97.521-25.382-121.121-23.156-23.601-19.148-40.522-14.25-71.692 4.898-30.726-8.016-44.976 6.68-71.248 15.14-26.272 16.03-54.326 27.608-69.912 12.022-16.03 26.718-32.951 26.718-32.951s-11.578 30.279-16.922 49.873c-5.788 19.147.891 23.155-5.343 46.311-6.234 23.155-14.25 28.499-5.789 48.537 8.015 20.039 9.351 34.733 14.249 50.319 4.898 16.03 6.234 33.397 18.258-19.594 12.468-52.99 4.898-58.778 12.022-81.489 6.68-22.71 17.367-54.326 17.367-54.326s4.897 28.499 1.336 49.873c-4.008 20.93-5.789 31.616 4.007 53.882 9.797 22.265 7.57 47.646 11.578 66.794 4.453 19.148 3.117 17.367 19.148-4.453 16.03-21.819 23.155-36.514 25.382-61.451 1.78-24.937 15.585-36.959 15.14-58.778-.445-21.82 5.789-68.576 5.789-68.576s5.344 19.593 9.352 33.397-6.234 21.374-3.563 43.193c2.672 22.266 9.797 52.99.891 69.912-9.352 17.366-12.914 36.96-12.023 54.326s-7.57 28.499-27.163 44.529c-19.593 15.586-41.413 23.156-55.217 82.826-14.249 59.67-63.232 318.388-76.591 439.508-13.359 120.676 4.898 183.463 0 211.071-4.453 27.163-26.719 62.342-26.719 62.342s12.914-34.733 7.125-51.654c-5.344-16.922-13.804-36.96-18.257-32.952-4.898 4.008-19.593 27.608-22.265 37.851-2.227 10.687-3.563 15.14-3.563 15.14s-9.352-16.476-6.234-34.288c3.117-17.812-.445-34.288-12.914-20.929-12.468 13.805-18.257 24.491-20.929 39.632-3.116 14.693-4.452 41.411-4.452 41.411z"/><path d="m6689.325-491.813c.891-4.008 2.672-8.461 5.344-13.359 15.14-26.272 16.03-54.326 27.608-69.912 12.022-16.03 26.718-32.951 26.718-32.951s-11.578 30.279-16.922 49.873c-5.788 19.147.891 23.155-5.343 46.311-6.234 23.155-14.25 28.499-5.789 48.537 4.453 11.133 7.125 20.93 9.351 30.28-4.007-8.905-8.015-18.257-12.022-24.491-8.016-13.804-6.68-20.483-4.008-32.062 2.672-12.022 12.023-27.608 9.797-39.186-2.227-11.578 0-18.258 1.336-26.718 1.781-8.461.445-7.125-4.898.891-4.898 8.46-6.234 36.514-25.827 56.107-2.228 2.227-4.009 4.454-5.345 6.68zm73.029-8.906c.445-4.008 1.336-8.461 3.116-13.359 6.68-22.71 17.367-54.326 17.367-54.326s4.897 28.499 1.336 49.873c-4.008 20.93-5.789 31.616 4.007 53.882 9.352 20.929 7.57 44.529 11.133 62.786-2.227-4.897-4.453-11.577-5.344-20.929-3.117-24.491-7.125-36.069-14.694-45.865-8.016-9.797-4.453-25.827-2.672-46.757 1.781-20.929 0-24.046-8.016-3.117-2.671 6.234-4.451 12.468-6.233 17.812zm97.52-37.85c1.336-23.155 5.344-52.545 5.344-52.545s5.344 19.593 9.352 33.397-6.234 21.374-3.563 43.193c2.227 17.813 7.125 40.968 4.453 58.334-.891-10.687-4.453-19.593-7.125-30.726-4.898-20.038-5.344-25.382-1.781-43.639 3.117-18.702.445-29.835-.891-24.491-.445.892-2.672 7.125-5.789 16.477zm-61.006 223.539c-8.016 11.133-15.585 27.163-21.374 52.101-14.249 59.67-63.232 318.388-76.591 439.508-13.359 120.676 4.898 183.463 0 211.071-1.336 9.797-5.344 20.483-9.797 30.28 1.781-7.57 3.117-16.476 3.563-25.382 3.563-42.749-13.805-86.833-8.461-150.511 4.898-63.678 52.545-343.324 73.92-465.781 8.905-49.873 24.046-77.036 38.74-91.286zm-129.581 684.423c-2.672-3.563-4.898-5.344-6.234-4.008-4.898 4.008-19.593 27.608-22.265 37.851-2.227 10.687-3.563 15.14-3.563 15.14s-1.336-5.789 1.336-21.374c2.672-15.586 16.921-44.53 24.491-38.296 3.118 2.226 4.899 6.233 6.235 10.687z" fill="#4d4d4d"/><path d="m6664.389-142.255c.891-.89 1.781-1.78 3.117-2.671 24.937-20.039 60.115-15.141 85.052 2.227 19.147 13.358 43.639 40.076 36.959 65.458-3.562 12.914-8.905 16.922-6.679 31.616 3.117 22.71-4.898 52.1-20.929 68.576-18.703 18.257-61.451 12.913-84.162 4.008-19.593-7.125-32.951-27.164-26.272-48.093 13.805-43.639-32.952 0-33.843-70.802-.445-16.922 4.008-35.624 18.703-45.421 7.57-4.898 16.476-6.679 25.382-5.343z"/><path d="m6744.987-79.022s-1.781-13.804-23.601-21.819-41.858-3.117-41.858-3.117-4.453-4.453-5.789-10.688c8.461-4.007 26.273-9.796 47.202 1.336 29.835 15.14 24.046 34.288 24.046 34.288zm16.032 65.013c-3.117 9.797-8.016 18.257-12.914 23.155-8.906 9.352-40.522 8.906-63.678 0-22.71-8.461-19.147-36.959 4.898-36.959s38.296 4.897 38.296 4.897.445-12.468-19.148-15.14c-20.038-3.117-48.537-3.563-45.865-28.054.445-2.672.891-5.344 2.227-7.57 7.569-2.672 22.265-6.234 44.975 0 25.826 7.572 52.099 26.274 51.209 59.671zm-123.793-72.583c1.781 1.336 4.898 1.781 8.461.891 6.233-2.227 12.468-6.234 16.476-9.797-2.672 3.117-6.234 7.57-8.906 12.468-4.897 9.797-4.007 21.82-4.007 21.82-5.79.891-10.688-11.578-12.024-25.382z" fill="#ffa3b9"/><path d="m6620.304-68.78-2.227.891c-1.781 7.125-2.672 15.585-3.117 20.483-.891 14.25 0 30.726.891 44.976.445 17.366 1.781 34.732 3.117 52.1 18.258-5.344 25.383-20.038 54.771-24.046-17.366-8.906-28.498-27.163-22.265-46.757 12.024-37.851-21.373-10.242-31.17-47.647z" fill="#ffd7e0"/><path d="m6615.851-1.985c.445 17.366 1.781 34.287 3.117 51.654 18.258-5.344 25.383-20.038 54.771-24.046-16.476-8.016-26.717-24.938-23.155-43.194-12.022 8.015-24.937 12.914-34.733 15.586z" fill="#ffa3b9"/><path d="m6744.987-79.022s-1.781-13.804-23.601-21.819-41.858-3.117-41.858-3.117-13.804-14.694 0-26.272c13.805-11.133 38.741-12.913 62.342 3.117 23.601 16.476 31.171 35.624 28.944 44.975-2.672 9.797-10.241 18.703-7.124 39.187 3.116 20.483-6.234 42.748-15.586 52.1-8.906 9.352-40.522 8.906-63.678 0-22.71-8.461-19.147-36.959 4.898-36.959s38.296 4.897 38.296 4.897.445-12.468-19.148-15.14c-20.038-3.117-48.537-3.563-45.865-28.054 3.118-24.938 38.296-39.188 82.38-12.915zm-86.387-44.53s-.891 9.796 2.227 16.03c3.563 5.789 5.344 8.016 5.344 8.016s-8.016 6.68-12.914 16.476c-4.897 9.797-4.007 21.82-4.007 21.82-13.806 2.226-22.712-67.686 9.35-62.342z" fill="#ffd7e0"/><path d="m6744.987-79.022s-1.781-13.804-23.601-21.819-41.858-3.117-41.858-3.117-4.453-4.453-5.789-10.688c8.461-4.007 26.273-9.796 47.202 1.336 29.835 15.14 24.046 34.288 24.046 34.288zm16.032 65.013c-3.117 9.797-8.016 18.257-12.914 23.155-8.906 9.352-40.522 8.906-63.678 0-22.71-8.461-19.147-36.959 4.898-36.959s38.296 4.897 38.296 4.897.445-12.468-19.148-15.14c-20.038-3.117-48.537-3.563-45.865-28.054.445-2.672.891-5.344 2.227-7.57 7.569-2.672 22.265-6.234 44.975 0 25.826 7.572 52.099 26.274 51.209 59.671zm-123.793-72.583c1.781 1.336 4.898 1.781 8.461.891 6.233-2.227 12.468-6.234 16.476-9.797-2.672 3.117-6.234 7.57-8.906 12.468-4.897 9.797-4.007 21.82-4.007 21.82-5.79.891-10.688-11.578-12.024-25.382z" fill="#ffa3b9"/></svg>